<?xml version="1.0" encoding="UTF-8" standalone="no"?>
<svg
   xmlns:dc="http://purl.org/dc/elements/1.1/"
   xmlns:cc="http://creativecommons.org/ns#"
   xmlns:rdf="http://www.w3.org/1999/02/22-rdf-syntax-ns#"
   xmlns:svg="http://www.w3.org/2000/svg"
   xmlns="http://www.w3.org/2000/svg"
   xmlns:sodipodi="http://sodipodi.sourceforge.net/DTD/sodipodi-0.dtd"
   xmlns:inkscape="http://www.inkscape.org/namespaces/inkscape"
   width="10.133402mm"
   height="7.6858478mm"
   viewBox="0 0 10.133402 7.6858478"
   version="1.1"
   id="svg11463"
   inkscape:version="1.0.2-2 (e86c870879, 2021-01-15)"
   sodipodi:docname="blue_bit.svg">
  <defs
     id="defs11457" />
  <sodipodi:namedview
     id="base"
     pagecolor="#ffffff"
     bordercolor="#666666"
     borderopacity="1.0"
     inkscape:pageopacity="0.0"
     inkscape:pageshadow="2"
     inkscape:zoom="0.35"
     inkscape:cx="-52.281055"
     inkscape:cy="183.08785"
     inkscape:document-units="mm"
     inkscape:current-layer="layer1"
     inkscape:document-rotation="0"
     showgrid="false"
     inkscape:window-width="1481"
     inkscape:window-height="1020"
     inkscape:window-x="76"
     inkscape:window-y="60"
     inkscape:window-maximized="0" />
  <metadata
     id="metadata11460">
    <rdf:RDF>
      <cc:Work
         rdf:about="">
        <dc:format>image/svg+xml</dc:format>
        <dc:type
           rdf:resource="http://purl.org/dc/dcmitype/StillImage" />
        <dc:title></dc:title>
      </cc:Work>
    </rdf:RDF>
  </metadata>
  <g
     inkscape:label="Ebene 1"
     inkscape:groupmode="layer"
     id="layer1"
     transform="translate(-119.66603,-99.724673)">
    <path
       style="fill:none;stroke:#4fabe3;stroke-width:0.345722;stroke-linecap:round;stroke-linejoin:round;stroke-miterlimit:10;stroke-opacity:1"
       d="m 125.35019,105.45396 c -0.11024,0.0978 -0.24116,0.16536 -0.38447,0.20257 l -0.001,0.003 v 0.86541 l 0.003,0.003 0.003,0.004 c 0.0992,0.0772 0.1571,0.19568 0.15296,0.31971 -0.003,0.1254 -0.0661,0.24253 -0.16812,0.31281 l -0.001,-0.001 -0.0138,0.01 -0.0193,0.011 -0.0193,0.0124 -0.0303,0.0138 -0.0331,0.01 -0.0345,0.007 -0.073,0.01 -0.073,-0.01 -0.0331,-0.007 -0.0289,-0.01 -0.0303,-0.0138 -0.0234,-0.0124 -0.0166,-0.011 -0.0138,-0.008 c -0.10335,-0.0717 -0.16537,-0.18742 -0.1695,-0.31282 -0.003,-0.12402 0.0537,-0.24253 0.15296,-0.3197 l 0.004,-0.007 v -0.86817 c -0.14194,-0.0372 -0.27423,-0.10611 -0.38309,-0.20257 l -0.003,0.003 -0.022,0.11576 c -0.11299,0.58842 -0.52916,1.07211 -1.09416,1.27331 -0.56499,0.19981 -1.19338,0.0868 -1.65227,-0.29904 l -1.43591,-1.20303 c -0.0262,-0.0234 -0.0427,-0.0537 -0.0455,-0.0882 l -0.0248,-0.47542 c 0,-0.0248 0.0152,-0.0482 0.0372,-0.0593 0.0234,-0.011 0.051,-0.007 0.0703,0.01 l 1.71704,1.43729 c 0.32384,0.27286 0.76894,0.35278 1.16857,0.21085 0.39963,-0.14194 0.69453,-0.48369 0.77446,-0.89986 l 0.45613,-2.36058 v -0.0289 l -0.003,-0.0303 -0.01,-0.0262 -0.0179,-0.0234 -0.0193,-0.0207 -0.0234,-0.0138 -0.0303,-0.008 -0.0262,-0.004 h -1.55443 c -0.051,0 -0.0965,-0.0303 -0.11989,-0.0758 -0.0207,-0.0469 -0.0138,-0.1006 0.0193,-0.13918 l 0.003,-0.001 2.35231,-2.802936 c 0.0248,-0.0303 0.062,-0.04685 0.1006,-0.04823 0.0386,0.0014 0.0758,0.01792 0.1006,0.04823 h -0.003 l 2.35369,2.802936 v 0.001 c 0.0331,0.0372 0.04,0.0923 0.0193,0.13918 -0.022,0.0455 -0.0689,0.0758 -0.11989,0.0744 l -0.001,0.001 h -1.55029 l -0.0303,0.004 -0.0262,0.008 -0.0262,0.0138 -0.0207,0.0207 -0.0165,0.022 -0.01,0.0276 -0.003,0.0289 0.003,0.0303 0.45613,2.36196 0.001,-10e-4 c 0.0799,0.41617 0.37483,0.75792 0.77446,0.89986 0.39826,0.14194 0.84336,0.062 1.16858,-0.21084 h -0.001 l 1.71841,-1.43868 v 0.001 c 0.0193,-0.0166 0.0455,-0.0207 0.0689,-0.008 0.0234,0.01 0.0372,0.0331 0.0372,0.0579 -10e-4,0.15985 -0.01,0.31832 -0.0262,0.47818 l -0.001,-0.003 c -0.004,0.0345 -0.0193,0.0661 -0.0455,0.0868 v 0.003 l -1.43316,1.20165 v 10e-4 c -0.45889,0.38585 -1.08728,0.49747 -1.65227,0.29765 -0.565,-0.20119 -0.98117,-0.68488 -1.09416,-1.2733 z m 0,0"
       id="path2312" />
    <path
       style="fill:none;stroke:#4fabe3;stroke-width:0.345722;stroke-linecap:round;stroke-linejoin:round;stroke-miterlimit:10;stroke-opacity:1"
       d="m 124.21331,104.74702 c 0,-0.28938 0.23427,-0.52503 0.52503,-0.52503 0.28801,10e-4 0.52228,0.23565 0.52228,0.52503 0,0.28801 -0.23427,0.52366 -0.52228,0.52366 -0.29076,0 -0.52503,-0.23565 -0.52503,-0.52366 z m 0,0"
       id="path2314" />
  </g>
</svg>
