<svg width="329" height="163" xmlns="http://www.w3.org/2000/svg" xmlns:xlink="http://www.w3.org/1999/xlink" overflow="hidden"><defs><clipPath id="clip0"><rect x="1065" y="1055" width="329" height="163"/></clipPath><clipPath id="clip1"><path d="M1065.43 1144.33 1161.59 1055.92 1229.06 1129.3 1132.91 1217.71Z" fill-rule="evenodd" clip-rule="evenodd"/></clipPath><clipPath id="clip2"><path d="M1065.43 1144.33 1161.59 1055.92 1229.06 1129.3 1132.91 1217.71Z" fill-rule="evenodd" clip-rule="evenodd"/></clipPath><clipPath id="clip3"><path d="M1065.43 1144.33 1161.59 1055.92 1229.06 1129.3 1132.91 1217.71Z" fill-rule="evenodd" clip-rule="evenodd"/></clipPath><clipPath id="clip4"><path d="M1294.77 1055.92 1393 1142.01 1327.3 1216.98 1229.06 1130.89Z" fill-rule="evenodd" clip-rule="evenodd"/></clipPath><clipPath id="clip5"><path d="M1294.77 1055.92 1393 1142.01 1327.3 1216.98 1229.06 1130.89Z" fill-rule="evenodd" clip-rule="evenodd"/></clipPath><clipPath id="clip6"><path d="M1294.77 1055.92 1393 1142.01 1327.3 1216.98 1229.06 1130.89Z" fill-rule="evenodd" clip-rule="evenodd"/></clipPath></defs><g clip-path="url(#clip0)" transform="translate(-1065 -1055)"><g clip-path="url(#clip1)"><g clip-path="url(#clip2)"><g clip-path="url(#clip3)"><path d="M1169.57 1149.33C1169.38 1151.22 1168.72 1153 1167.69 1154.61L1167.71 1154.64 1175.26 1162.85 1175.31 1162.85 1175.38 1162.86C1176.99 1162.73 1178.57 1163.35 1179.62 1164.57 1180.68 1165.78 1181.1 1167.44 1180.75 1168.99L1180.73 1168.99 1180.68 1169.21 1180.59 1169.49 1180.52 1169.78 1180.36 1170.17 1180.13 1170.55 1179.86 1170.93 1179.26 1171.66 1178.48 1172.2 1178.1 1172.42 1177.74 1172.58 1177.33 1172.71 1177 1172.79 1176.75 1172.83 1176.54 1172.88C1174.95 1173.1 1173.35 1172.54 1172.22 1171.39 1171.11 1170.24 1170.6 1168.62 1170.88 1167.02L1170.85 1166.92 1163.28 1158.68C1161.61 1159.57 1159.75 1160.07 1157.87 1160.1L1157.87 1160.15 1158.68 1161.44C1162.73 1168.01 1163 1176.24 1159.39 1183.08 1155.78 1189.9 1148.83 1194.31 1141.11 1194.65L1116.99 1195.77C1116.54 1195.78 1116.11 1195.63 1115.79 1195.33L1111.41 1191.04C1111.19 1190.8 1111.12 1190.44 1111.24 1190.14 1111.36 1189.84 1111.66 1189.63 1111.99 1189.63L1140.83 1188.29C1146.28 1188.05 1151.2 1184.92 1153.75 1180.09 1156.31 1175.25 1156.13 1169.44 1153.25 1164.8L1136.99 1138.41 1136.74 1138.14 1136.45 1137.88 1136.12 1137.72 1135.74 1137.65 1135.37 1137.62 1135.04 1137.7 1134.68 1137.89 1134.39 1138.08 1119.65 1151.64C1119.16 1152.09 1118.47 1152.19 1117.85 1151.97 1117.24 1151.71 1116.83 1151.13 1116.81 1150.48L1116.83 1150.45 1114.7 1103.32C1114.67 1102.81 1114.88 1102.33 1115.23 1101.99 1115.61 1101.66 1116.11 1101.5 1116.61 1101.56L1116.58 1101.59 1163.38 1107.65 1163.38 1107.66C1164.02 1107.72 1164.57 1108.18 1164.78 1108.81 1164.96 1109.43 1164.79 1110.14 1164.28 1110.56L1164.28 1110.58 1149.58 1124.11 1149.32 1124.41 1149.14 1124.72 1149.02 1125.08 1149 1125.46 1149.04 1125.81 1149.18 1126.15 1149.4 1126.45 1149.7 1126.72 1174.64 1145.15 1174.64 1145.14C1179.03 1148.38 1184.8 1149.05 1189.83 1146.91 1194.85 1144.78 1198.38 1140.14 1199.09 1134.72L1199.08 1134.73 1202.83 1106.08 1202.83 1106.09C1202.88 1105.76 1203.09 1105.49 1203.42 1105.42 1203.73 1105.3 1204.07 1105.4 1204.29 1105.63 1205.67 1107.16 1206.97 1108.74 1208.2 1110.41L1208.16 1110.39C1208.42 1110.74 1208.56 1111.18 1208.5 1111.6L1208.52 1111.63 1205.4 1135.53 1205.41 1135.54C1204.43 1143.21 1199.43 1149.76 1192.33 1152.79 1185.21 1155.81 1177.04 1154.85 1170.84 1150.26Z" stroke="#4FABE3" stroke-width="4.45654" stroke-linecap="round" stroke-linejoin="round" stroke-miterlimit="10" fill="none"/><path d="M1152.61 1152.54C1150.09 1149.8 1150.26 1145.51 1153.01 1142.98 1155.75 1140.48 1160.03 1140.65 1162.55 1143.4 1165.07 1146.13 1164.89 1150.42 1162.16 1152.93 1159.41 1155.46 1155.12 1155.27 1152.61 1152.54Z" stroke="#4FABE3" stroke-width="4.45654" stroke-linecap="round" stroke-linejoin="round" stroke-miterlimit="10" fill="none"/></g></g></g><g clip-path="url(#clip4)"><g clip-path="url(#clip5)"><g clip-path="url(#clip6)"><path d="M1300.99 1159.98C1299.09 1160 1297.25 1159.53 1295.54 1158.69L1295.51 1158.71 1288.16 1167.09 1288.16 1167.15 1288.16 1167.21C1288.46 1168.8 1288.02 1170.45 1286.92 1171.61 1285.83 1172.8 1284.23 1173.4 1282.64 1173.21L1282.64 1173.19 1282.42 1173.17 1282.13 1173.11 1281.84 1173.07 1281.43 1172.95 1281.02 1172.77 1280.63 1172.54 1279.83 1172.02 1279.21 1171.3 1278.95 1170.95 1278.75 1170.61 1278.58 1170.22 1278.47 1169.9 1278.4 1169.65 1278.33 1169.45C1277.94 1167.89 1278.32 1166.23 1279.34 1164.99 1280.37 1163.76 1281.92 1163.08 1283.55 1163.19L1283.64 1163.15 1291.02 1154.74C1289.96 1153.17 1289.25 1151.37 1289.03 1149.52L1288.98 1149.52 1287.78 1150.46C1281.69 1155.2 1273.53 1156.35 1266.35 1153.5 1259.17 1150.63 1254.04 1144.2 1252.87 1136.56L1249.17 1112.7C1249.11 1112.25 1249.21 1111.81 1249.48 1111.46L1253.27 1106.65C1253.49 1106.4 1253.84 1106.3 1254.14 1106.38 1254.46 1106.47 1254.7 1106.74 1254.74 1107.07L1259.16 1135.6C1259.99 1140.99 1263.63 1145.54 1268.71 1147.57 1273.8 1149.59 1279.55 1148.79 1283.85 1145.43L1308.34 1126.42 1308.59 1126.14 1308.82 1125.82 1308.94 1125.49 1308.97 1125.1 1308.95 1124.73 1308.84 1124.41 1308.62 1124.07 1308.39 1123.81 1293.33 1110.6C1292.83 1110.17 1292.66 1109.49 1292.81 1108.85 1293 1108.21 1293.53 1107.75 1294.17 1107.66L1294.21 1107.68 1340.84 1100.49C1341.34 1100.41 1341.84 1100.56 1342.22 1100.87 1342.58 1101.22 1342.8 1101.69 1342.79 1102.2L1342.76 1102.17 1341.76 1149.35 1341.75 1149.36C1341.76 1150 1341.36 1150.59 1340.76 1150.87 1340.16 1151.12 1339.44 1151.02 1338.97 1150.57L1338.95 1150.57 1323.92 1137.4 1323.59 1137.17 1323.27 1137.03 1322.9 1136.94 1322.51 1136.97 1322.17 1137.05 1321.84 1137.22 1321.57 1137.48 1321.34 1137.81 1305.69 1164.58 1305.71 1164.58C1302.95 1169.29 1302.91 1175.1 1305.57 1179.87 1308.23 1184.63 1313.23 1187.64 1318.69 1187.76L1318.68 1187.76 1347.56 1188.4 1347.55 1188.41C1347.89 1188.42 1348.18 1188.6 1348.29 1188.92 1348.44 1189.22 1348.38 1189.56 1348.16 1189.81 1346.79 1191.35 1345.37 1192.8 1343.84 1194.21L1343.86 1194.17C1343.53 1194.47 1343.11 1194.65 1342.68 1194.63L1342.66 1194.66 1318.56 1194.13 1318.55 1194.14C1310.82 1193.98 1303.77 1189.72 1299.99 1182.99 1296.22 1176.24 1296.3 1168.01 1300.2 1161.35Z" stroke="#4FABE3" stroke-width="4.45654" stroke-linecap="round" stroke-linejoin="round" stroke-miterlimit="10" fill="none"/><path d="M1295.98 1143.47C1298.43 1140.67 1302.71 1140.38 1305.53 1142.84 1308.31 1145.3 1308.59 1149.57 1306.14 1152.37 1303.69 1155.16 1299.41 1155.46 1296.61 1153.01 1293.8 1150.54 1293.53 1146.26 1295.98 1143.47Z" stroke="#4FABE3" stroke-width="4.45654" stroke-linecap="round" stroke-linejoin="round" stroke-miterlimit="10" fill="none"/></g></g></g></g></svg>