<svg width="1611" height="1171" xmlns="http://www.w3.org/2000/svg" xmlns:xlink="http://www.w3.org/1999/xlink" overflow="hidden"><defs><clipPath id="clip0"><rect x="346" y="853" width="1611" height="1171"/></clipPath><clipPath id="clip1"><rect x="1064" y="1351" width="182" height="129"/></clipPath><clipPath id="clip2"><rect x="1064" y="1351" width="182" height="129"/></clipPath><clipPath id="clip3"><rect x="1064" y="1351" width="182" height="129"/></clipPath></defs><g clip-path="url(#clip0)" transform="translate(-346 -853)"><rect x="915.5" y="1378.5" width="39.0002" height="76" stroke="#9E9E9E" stroke-width="3.4375" stroke-linejoin="round" stroke-miterlimit="10" fill="#FFFFFF"/><rect x="1346.5" y="1378.5" width="38.0001" height="76" stroke="#9E9E9E" stroke-width="3.4375" stroke-linejoin="round" stroke-miterlimit="10" fill="#FFFFFF"/><path d="M1152.22 978.5 1152.22 1157.95 1148.78 1157.95 1148.78 978.5ZM1164.25 1153.36 1150.5 1180.86 1136.75 1153.36Z" fill="#F15E22"/><rect x="954.5" y="1220.5" width="392" height="391" stroke="#000000" stroke-width="3.4375" stroke-linejoin="round" stroke-miterlimit="10" fill="#FFFFFF"/><rect x="1039.5" y="1611.5" width="73.9999" height="39.9999" stroke="#000000" stroke-width="3.4375" stroke-linejoin="round" stroke-miterlimit="10" fill="#FFFFFF"/><rect x="1187.5" y="1611.5" width="73.9999" height="39.9999" stroke="#000000" stroke-width="3.4375" stroke-linejoin="round" stroke-miterlimit="10" fill="#FFFFFF"/><rect x="1114.5" y="1180.5" width="73.9999" height="40.0002" stroke="#000000" stroke-width="3.4375" stroke-linejoin="round" stroke-miterlimit="10" fill="#FFFFFF"/><text font-family="Arial,Arial_MSFontService,sans-serif" font-weight="400" font-size="41" transform="matrix(1 0 0 1 1044.41 1926)">Control Out<tspan fill="#9E9E9E" font-size="41" x="-584.591" y="-476">Data Out</tspan><tspan fill="#9E9E9E" font-size="41" x="650.015" y="-477">Data In</tspan><tspan font-size="41" x="13.5314" y="-1000">Control In</tspan></text><path d="M1075.22 1651.5 1075.22 1830.95 1071.78 1830.95 1071.78 1651.5ZM1087.25 1826.36 1073.5 1853.86 1059.75 1826.36Z" fill="#F15E22"/><path d="M1226.22 1651.5 1226.22 1830.95 1222.78 1830.95 1222.78 1651.5ZM1238.25 1826.36 1224.5 1853.86 1210.75 1826.36Z" fill="#F15E22"/><path d="M0.00389088-1.71875 187.68-1.29389 187.672 2.14361-0.00389088 1.71875ZM183.124-13.3355 210.593 0.476739 183.062 14.1644Z" fill="#5B9BD5" transform="matrix(-1 0 0 1 1596.09 1419.5)"/><path d="M0.00389088-1.71875 187.68-1.29389 187.672 2.14361-0.00389088 1.71875ZM183.124-13.3355 210.593 0.476739 183.062 14.1644Z" fill="#5B9BD5" transform="matrix(-1 0 0 1 920.093 1415.5)"/><g clip-path="url(#clip1)"><g clip-path="url(#clip2)"><g clip-path="url(#clip3)"><path d="M2058.54 1731.8C2056.73 1733.41 2054.58 1734.51 2052.23 1735.13L2052.22 1735.18 2052.22 1749.39 2052.27 1749.44 2052.32 1749.5C2053.94 1750.77 2054.89 1752.72 2054.83 1754.76 2054.78 1756.81 2053.74 1758.73 2052.07 1759.88L2052.05 1759.87 2051.82 1760.03 2051.49 1760.21 2051.18 1760.42 2050.69 1760.65 2050.15 1760.82 2049.57 1760.93 2048.37 1761.1 2047.17 1760.93 2046.63 1760.82 2046.16 1760.65 2045.66 1760.42 2045.29 1760.21 2045.01 1760.03 2044.78 1759.9C2043.09 1758.73 2042.07 1756.83 2042 1754.78 2041.95 1752.74 2042.87 1750.78 2044.51 1749.52L2044.58 1749.41 2044.58 1735.15C2042.25 1734.54 2040.06 1733.41 2038.29 1731.82L2038.24 1731.87 2037.88 1733.77C2036.02 1743.43 2029.18 1751.38 2019.9 1754.68 2010.62 1757.96 2000.31 1756.11 1992.77 1749.77L1969.19 1730.01C1968.76 1729.63 1968.48 1729.12 1968.45 1728.57L1968.04 1720.76C1968.04 1720.35 1968.28 1719.96 1968.64 1719.78 1969.02 1719.6 1969.48 1719.66 1969.79 1719.94L1997.99 1743.56C2003.31 1748.03 2010.62 1749.34 2017.19 1747.01 2023.76 1744.68 2028.6 1739.08 2029.9 1732.24L2037.4 1693.47 2037.4 1692.99 2037.35 1692.5 2037.19 1692.07 2036.89 1691.68 2036.57 1691.34 2036.19 1691.12 2035.7 1690.99 2035.25 1690.93 2009.73 1690.93C2008.89 1690.93 2008.16 1690.42 2007.76 1689.68 2007.42 1688.91 2007.53 1688.02 2008.07 1687.39L2008.12 1687.38 2046.76 1641.34C2047.17 1640.85 2047.78 1640.57 2048.41 1640.55 2049.05 1640.57 2049.65 1640.85 2050.07 1641.34L2050.02 1641.34 2088.67 1687.38 2088.67 1687.39C2089.22 1688 2089.33 1688.91 2088.99 1689.68 2088.62 1690.42 2087.85 1690.93 2087.02 1690.89L2087 1690.91 2061.54 1690.91 2061.04 1690.97 2060.61 1691.11 2060.18 1691.34 2059.84 1691.68 2059.57 1692.04 2059.41 1692.49 2059.36 1692.96 2059.41 1693.47 2066.9 1732.26 2066.91 1732.24C2068.23 1739.08 2073.07 1744.68 2079.63 1747.01 2086.18 1749.34 2093.49 1748.03 2098.82 1743.56L2098.81 1743.56 2127.02 1719.93 2127.02 1719.94C2127.35 1719.66 2127.78 1719.6 2128.15 1719.81 2128.55 1719.98 2128.78 1720.35 2128.78 1720.76 2128.76 1723.39 2128.61 1725.99 2128.33 1728.61L2128.32 1728.57C2128.25 1729.12 2128.01 1729.65 2127.58 1729.99L2127.58 1730.04 2104.05 1749.77 2104.05 1749.78C2096.51 1756.12 2086.18 1757.96 2076.9 1754.68 2067.62 1751.38 2060.79 1743.43 2058.93 1733.77Z" stroke="#5B9BD5" stroke-width="5.67756" stroke-linecap="round" stroke-linejoin="round" stroke-miterlimit="10" fill="none" transform="matrix(1.08164 0 0 1 -1060.63 -285.322)"/><path d="M2039.87 1720.19C2039.87 1715.44 2043.73 1711.57 2048.49 1711.57 2053.22 1711.58 2057.08 1715.44 2057.08 1720.19 2057.08 1724.92 2053.22 1728.8 2048.49 1728.8 2043.73 1728.8 2039.87 1724.92 2039.87 1720.19Z" stroke="#5B9BD5" stroke-width="5.67756" stroke-linecap="round" stroke-linejoin="round" stroke-miterlimit="10" fill="none" transform="matrix(1.08164 0 0 1 -1060.63 -285.322)"/></g></g></g></g></svg>