<svg width="1241" height="476" xmlns="http://www.w3.org/2000/svg" xmlns:xlink="http://www.w3.org/1999/xlink" overflow="hidden"><defs><clipPath id="clip0"><rect x="185" y="1146" width="1241" height="476"/></clipPath></defs><g clip-path="url(#clip0)" transform="translate(-185 -1146)"><path d="M709.523 1328.65 709.523 1618.06" stroke="#9E9E9E" stroke-width="3.4375" stroke-linejoin="round" stroke-miterlimit="10" fill="none" fill-rule="evenodd"/><path d="M947.117 1328.65 947.117 1618.06" stroke="#9E9E9E" stroke-width="3.4375" stroke-linejoin="round" stroke-miterlimit="10" fill="none" fill-rule="evenodd"/><path d="M1184.71 1328.65 1184.71 1618.06" stroke="#9E9E9E" stroke-width="3.4375" stroke-linejoin="round" stroke-miterlimit="10" fill="none" fill-rule="evenodd"/><path d="M470.211 1473.36 1424.02 1473.36" stroke="#9E9E9E" stroke-width="3.4375" stroke-linejoin="round" stroke-miterlimit="10" fill="none" fill-rule="evenodd"/><path d="M471.93 1328.65 471.93 1618.06" stroke="#9E9E9E" stroke-width="3.4375" stroke-linejoin="round" stroke-miterlimit="10" fill="none" fill-rule="evenodd"/><path d="M1422.3 1328.65 1422.3 1618.06" stroke="#9E9E9E" stroke-width="3.4375" stroke-linejoin="round" stroke-miterlimit="10" fill="none" fill-rule="evenodd"/><path d="M470.211 1330.37 1424.02 1330.37" stroke="#9E9E9E" stroke-width="3.4375" stroke-linejoin="round" stroke-miterlimit="10" fill="none" fill-rule="evenodd"/><path d="M470.211 1616.34 1424.02 1616.34" stroke="#9E9E9E" stroke-width="3.4375" stroke-linejoin="round" stroke-miterlimit="10" fill="none" fill-rule="evenodd"/><text fill="#0145AC" font-family="Arial,Arial_MSFontService,sans-serif" font-weight="400" font-size="64" transform="matrix(1 0 0 1 572.966 1425)">0<tspan font-size="64" x="237.594" y="0">0</tspan><tspan fill="#E06666" font-size="64" x="475.187" y="0">0</tspan><tspan fill="#E06666" font-size="64" x="712.781" y="0">0</tspan><tspan font-size="64" x="0" y="143">0</tspan><tspan font-size="64" x="237.594" y="143">1</tspan><tspan fill="#E06666" font-size="64" x="475.187" y="143">0</tspan><tspan fill="#E06666" font-size="64" x="712.781" y="143">0</tspan><tspan fill="#7F7F7F" font-family="Lato,Lato_MSFontService,sans-serif" font-size="64" x="-349.06" y="72">In pins</tspan><tspan fill="#7F7F7F" font-family="Lato,Lato_MSFontService,sans-serif" font-size="64" x="253.552" y="-183">Out pins</tspan></text></g></svg>