<?xml version="1.0" encoding="UTF-8" standalone="no"?>
<svg
   xmlns:dc="http://purl.org/dc/elements/1.1/"
   xmlns:cc="http://creativecommons.org/ns#"
   xmlns:rdf="http://www.w3.org/1999/02/22-rdf-syntax-ns#"
   xmlns:svg="http://www.w3.org/2000/svg"
   xmlns="http://www.w3.org/2000/svg"
   xmlns:sodipodi="http://sodipodi.sourceforge.net/DTD/sodipodi-0.dtd"
   xmlns:inkscape="http://www.inkscape.org/namespaces/inkscape"
   width="8.1214037mm"
   height="7.4605622mm"
   viewBox="0 0 8.1214037 7.4605622"
   version="1.1"
   id="svg11479"
   inkscape:version="1.0.2-2 (e86c870879, 2021-01-15)"
   sodipodi:docname="green_edge.svg">
  <defs
     id="defs11473" />
  <sodipodi:namedview
     id="base"
     pagecolor="#ffffff"
     bordercolor="#666666"
     borderopacity="1.0"
     inkscape:pageopacity="0.0"
     inkscape:pageshadow="2"
     inkscape:zoom="0.35"
     inkscape:cx="169.63314"
     inkscape:cy="125.52817"
     inkscape:document-units="mm"
     inkscape:current-layer="layer1"
     inkscape:document-rotation="0"
     showgrid="false"
     inkscape:window-width="1481"
     inkscape:window-height="1020"
     inkscape:window-x="152"
     inkscape:window-y="60"
     inkscape:window-maximized="0" />
  <metadata
     id="metadata11476">
    <rdf:RDF>
      <cc:Work
         rdf:about="">
        <dc:format>image/svg+xml</dc:format>
        <dc:type
           rdf:resource="http://purl.org/dc/dcmitype/StillImage" />
        <dc:title></dc:title>
      </cc:Work>
    </rdf:RDF>
  </metadata>
  <g
     inkscape:label="Ebene 1"
     inkscape:groupmode="layer"
     id="layer1"
     transform="translate(-60.951231,-114.95401)">
    <path
       style="fill:none;stroke:#2ba33f;stroke-width:0.345722;stroke-linecap:butt;stroke-linejoin:miter;stroke-miterlimit:10;stroke-opacity:1"
       d="m 68.210239,121.55199 c -0.347263,0.35002 -0.915017,0.35002 -1.265036,0 -0.348647,-0.34865 -0.348647,-0.91502 0,-1.26367 0.350019,-0.34864 0.915017,-0.34864 1.263661,0 0.348643,0.35003 0.350019,0.91502 0.0014,1.26367 z m -2.900768,-2.62379 c -0.203951,0.20257 -0.531925,0.20257 -0.735873,0 -0.205327,-0.20395 -0.203951,-0.53192 0,-0.73587 0.202572,-0.20395 0.531922,-0.20533 0.735873,0 0.203948,0.20395 0.202572,0.53192 0,0.73587 z m -1.280198,-1.88654 0.872299,-0.29214 0.0014,0.87919 v 0.001 c -0.08268,0.003 -0.165364,0.0165 -0.242535,0.0427 z m 4.564062,3.03031 c -0.439593,-0.52641 -1.208539,-0.62976 -1.770779,-0.2384 l -0.992187,-0.99218 c 0.136426,-0.43133 -0.0565,-0.89849 -0.460266,-1.10657 v -1.14102 l 2.796039,-0.93017 c 0.03859,-0.0138 0.06891,-0.0427 0.08268,-0.0827 l 0.124023,-0.36932 c 0.0069,-0.0234 0.0014,-0.0482 -0.01655,-0.0661 -0.0193,-0.0165 -0.0441,-0.0234 -0.06615,-0.0152 h -0.0014 l -5.105633,1.69637 c -0.356912,0.12127 -0.749653,0.0634 -1.058333,-0.14607 -0.310057,-0.21222 -0.502984,-0.55535 -0.522277,-0.93018 l -0.0303,-0.54295 c 0,-0.0262 -0.01655,-0.0496 -0.04272,-0.0593 -0.02342,-0.008 -0.04961,-10e-4 -0.0689,0.0165 l -0.0014,0.003 c -0.106108,0.11024 -0.209462,0.226 -0.305925,0.34726 0,0 -0.0303,0.0551 -0.02893,0.0854 l 0.0096,0.17364 c 0.02755,0.52089 0.296277,1.00045 0.727604,1.2926 0.431327,0.2949 0.972894,0.36931 1.467612,0.2067 l 0.202572,-0.0675 0.72347,0.72347 h 0.0014 c -0.278363,0.30317 -0.326595,0.75103 -0.117133,1.10519 l -0.613227,0.61323 -0.02205,-0.003 h -0.05099 l -0.0303,10e-4 -0.02755,0.004 -0.0303,0.007 -0.02893,0.011 -0.0303,0.01 -0.02755,0.0138 -0.02755,0.0179 -0.02755,0.0193 -0.02342,0.0207 -0.02342,0.0234 -0.0193,0.0262 -0.01655,0.0262 -0.01792,0.0276 -0.02067,0.051 -0.01655,0.0565 -0.0069,0.0386 -0.0014,0.0414 0.0014,0.04 0.0069,0.0386 0.01242,0.0413 0.01517,0.0372 0.01792,0.0345 0.02205,0.0331 0.01792,0.0234 0.02067,0.0221 0.02067,0.0193 0.02205,0.0165 0.03447,0.0221 0.03583,0.0207 0.03721,0.0124 0.03859,0.0124 0.04134,0.008 h 0.0813 l 0.03859,-0.007 0.0565,-0.0152 0.05099,-0.0207 0.02618,-0.0179 0.02618,-0.0193 0.0248,-0.0179 0.02205,-0.0262 0.0248,-0.0221 0.0193,-0.0262 0.01517,-0.0276 0.01379,-0.0276 0.01242,-0.0289 0.0083,-0.0303 0.0069,-0.0303 0.0041,-0.0289 v -0.0289 l 0.0041,-0.0262 -0.0041,-0.0262 v -0.0221 l 0.61323,-0.61184 c 0.354154,0.20946 0.803395,0.16261 1.105186,-0.11576 l 0.919152,0.91915 c -0.389985,0.56224 -0.289391,1.33119 0.2384,1.77078 0.523653,0.4396 1.299489,0.40376 1.784558,-0.0799 0.483694,-0.48507 0.518143,-1.25815 0.07993,-1.78318 z m 0,0"
       id="path2254" />
    <path
       style="fill:none;stroke:#2ba33f;stroke-width:0.345722;stroke-linecap:butt;stroke-linejoin:miter;stroke-miterlimit:10;stroke-opacity:1"
       d="m 64.355867,118.56302 c 0,0.32246 0.260449,0.58153 0.581533,0.58153 0.321084,0 0.581533,-0.25907 0.581533,-0.58153 0,-0.32108 -0.260449,-0.58015 -0.581533,-0.58015 -0.321084,0 -0.581533,0.25907 -0.581533,0.58015 z m 0,0"
       id="path2256" />
  </g>
</svg>
