<svg width="238" height="96" xmlns="http://www.w3.org/2000/svg" xmlns:xlink="http://www.w3.org/1999/xlink" overflow="hidden"><defs><clipPath id="clip0"><rect x="1781" y="1525" width="238" height="96"/></clipPath><clipPath id="clip1"><rect x="1780" y="1524" width="108" height="98"/></clipPath><clipPath id="clip2"><rect x="1780" y="1524" width="108" height="98"/></clipPath><clipPath id="clip3"><rect x="1780" y="1524" width="108" height="98"/></clipPath><clipPath id="clip4"><rect x="1911" y="1524" width="108" height="98"/></clipPath><clipPath id="clip5"><rect x="1911" y="1524" width="108" height="98"/></clipPath><clipPath id="clip6"><rect x="1911" y="1524" width="108" height="98"/></clipPath></defs><g clip-path="url(#clip0)" transform="translate(-1781 -1525)"><g clip-path="url(#clip1)"><g clip-path="url(#clip2)"><g clip-path="url(#clip3)"><path d="M877.708 1564.09C873.241 1568.6 865.935 1568.6 861.431 1564.09 856.945 1559.6 856.945 1552.32 861.431 1547.83 865.935 1543.35 873.205 1543.35 877.692 1547.83 882.177 1552.33 882.195 1559.6 877.71 1564.09ZM840.383 1530.33C837.758 1532.94 833.537 1532.94 830.914 1530.33 828.272 1527.7 828.289 1523.48 830.914 1520.86 833.521 1518.23 837.758 1518.22 840.383 1520.86 843.007 1523.48 842.989 1527.7 840.383 1530.33ZM823.91 1506.06 835.134 1502.3 835.152 1513.61 835.152 1513.63C834.088 1513.67 833.024 1513.83 832.031 1514.17ZM882.638 1545.05C876.982 1538.28 867.088 1536.94 859.853 1541.99L847.086 1529.21C848.841 1523.66 846.359 1517.66 841.163 1514.98L841.163 1500.3 877.141 1488.33C877.638 1488.15 878.029 1487.78 878.205 1487.26L879.801 1482.51C879.89 1482.2 879.819 1481.88 879.589 1481.66 879.34 1481.45 879.021 1481.36 878.737 1481.46L878.719 1481.46 813.021 1503.3C808.429 1504.85 803.376 1504.11 799.403 1501.42 795.413 1498.68 792.931 1494.26 792.683 1489.44L792.293 1482.45C792.293 1482.11 792.08 1481.82 791.743 1481.69 791.442 1481.59 791.105 1481.68 790.857 1481.91L790.839 1481.95C789.473 1483.36 788.143 1484.86 786.902 1486.41 786.902 1486.41 786.513 1487.12 786.529 1487.51L786.653 1489.75C787.008 1496.45 790.465 1502.61 796.015 1506.38 801.566 1510.17 808.534 1511.13 814.9 1509.03L817.507 1508.17 826.817 1517.48 826.835 1517.48C823.252 1521.37 822.632 1527.14 825.328 1531.69L817.436 1539.59 817.153 1539.56 816.497 1539.56 816.107 1539.57 815.752 1539.62 815.362 1539.71 814.99 1539.85 814.6 1539.98 814.246 1540.15 813.891 1540.38 813.537 1540.64 813.235 1540.89 812.934 1541.2 812.685 1541.54 812.473 1541.87 812.242 1542.23 811.976 1542.89 811.763 1543.61 811.674 1544.11 811.656 1544.64 811.674 1545.15 811.763 1545.66 811.922 1546.18 812.118 1546.66 812.348 1547.11 812.633 1547.53 812.863 1547.83 813.129 1548.11 813.394 1548.37 813.679 1548.58 814.123 1548.86 814.583 1549.13 815.062 1549.28 815.559 1549.45 816.09 1549.55 817.136 1549.55 817.633 1549.46 818.36 1549.27 819.016 1549 819.354 1548.77 819.691 1548.53 820.01 1548.29 820.293 1547.96 820.612 1547.68 820.86 1547.33 821.056 1546.98 821.233 1546.62 821.393 1546.25 821.5 1545.86 821.589 1545.48 821.641 1545.1 821.641 1544.73 821.694 1544.39 821.641 1544.05 821.641 1543.76 829.532 1535.9C834.09 1538.59 839.87 1537.99 843.753 1534.41L855.581 1546.23C850.563 1553.47 851.857 1563.36 858.649 1569.02 865.386 1574.67 875.37 1574.21 881.611 1567.99 887.835 1561.75 888.279 1551.81 882.641 1545.05Z" stroke="#2BA33F" stroke-width="4.44865" stroke-miterlimit="10" fill="none" transform="matrix(1.00672 0 0 1 992.327 45.8061)"/><path d="M828.113 1525.63C828.113 1529.78 831.463 1533.12 835.595 1533.12 839.727 1533.12 843.078 1529.78 843.078 1525.63 843.078 1521.5 839.727 1518.17 835.595 1518.17 831.463 1518.17 828.113 1521.5 828.113 1525.63Z" stroke="#2BA33F" stroke-width="4.44865" stroke-miterlimit="10" fill="none" transform="matrix(1.00672 0 0 1 992.327 45.8061)"/></g></g></g><g clip-path="url(#clip4)"><g clip-path="url(#clip5)"><g clip-path="url(#clip6)"><path d="M877.708 1564.09C873.241 1568.6 865.935 1568.6 861.431 1564.09 856.945 1559.6 856.945 1552.32 861.431 1547.83 865.935 1543.35 873.205 1543.35 877.692 1547.83 882.177 1552.33 882.195 1559.6 877.71 1564.09ZM840.383 1530.33C837.758 1532.94 833.537 1532.94 830.914 1530.33 828.272 1527.7 828.289 1523.48 830.914 1520.86 833.521 1518.23 837.758 1518.22 840.383 1520.86 843.007 1523.48 842.989 1527.7 840.383 1530.33ZM823.91 1506.06 835.134 1502.3 835.152 1513.61 835.152 1513.63C834.088 1513.67 833.024 1513.83 832.031 1514.17ZM882.638 1545.05C876.982 1538.28 867.088 1536.94 859.853 1541.99L847.086 1529.21C848.841 1523.66 846.359 1517.66 841.163 1514.98L841.163 1500.3 877.141 1488.33C877.638 1488.15 878.029 1487.78 878.205 1487.26L879.801 1482.51C879.89 1482.2 879.819 1481.88 879.589 1481.66 879.34 1481.45 879.021 1481.36 878.737 1481.46L878.719 1481.46 813.021 1503.3C808.429 1504.85 803.376 1504.11 799.403 1501.42 795.413 1498.68 792.931 1494.26 792.683 1489.44L792.293 1482.45C792.293 1482.11 792.08 1481.82 791.743 1481.69 791.442 1481.59 791.105 1481.68 790.857 1481.91L790.839 1481.95C789.473 1483.36 788.143 1484.86 786.902 1486.41 786.902 1486.41 786.513 1487.12 786.529 1487.51L786.653 1489.75C787.008 1496.45 790.465 1502.61 796.015 1506.38 801.566 1510.17 808.534 1511.13 814.9 1509.03L817.507 1508.17 826.817 1517.48 826.835 1517.48C823.252 1521.37 822.632 1527.14 825.328 1531.69L817.436 1539.59 817.153 1539.56 816.497 1539.56 816.107 1539.57 815.752 1539.62 815.362 1539.71 814.99 1539.85 814.6 1539.98 814.246 1540.15 813.891 1540.38 813.537 1540.64 813.235 1540.89 812.934 1541.2 812.685 1541.54 812.473 1541.87 812.242 1542.23 811.976 1542.89 811.763 1543.61 811.674 1544.11 811.656 1544.64 811.674 1545.15 811.763 1545.66 811.922 1546.18 812.118 1546.66 812.348 1547.11 812.633 1547.53 812.863 1547.83 813.129 1548.11 813.394 1548.37 813.679 1548.58 814.123 1548.86 814.583 1549.13 815.062 1549.28 815.559 1549.45 816.09 1549.55 817.136 1549.55 817.633 1549.46 818.36 1549.27 819.016 1549 819.354 1548.77 819.691 1548.53 820.01 1548.29 820.293 1547.96 820.612 1547.68 820.86 1547.33 821.056 1546.98 821.233 1546.62 821.393 1546.25 821.5 1545.86 821.589 1545.48 821.641 1545.1 821.641 1544.73 821.694 1544.39 821.641 1544.05 821.641 1543.76 829.532 1535.9C834.09 1538.59 839.87 1537.99 843.753 1534.41L855.581 1546.23C850.563 1553.47 851.857 1563.36 858.649 1569.02 865.386 1574.67 875.37 1574.21 881.611 1567.99 887.835 1561.75 888.279 1551.81 882.641 1545.05Z" stroke="#2BA33F" stroke-width="4.44865" stroke-miterlimit="10" fill="none" transform="matrix(-1.00672 0 0 1 2807.67 45.8061)"/><path d="M828.113 1525.63C828.113 1529.78 831.463 1533.12 835.595 1533.12 839.727 1533.12 843.078 1529.78 843.078 1525.63 843.078 1521.5 839.727 1518.17 835.595 1518.17 831.463 1518.17 828.113 1521.5 828.113 1525.63Z" stroke="#2BA33F" stroke-width="4.44865" stroke-miterlimit="10" fill="none" transform="matrix(-1.00672 0 0 1 2807.67 45.8061)"/></g></g></g></g></svg>