<?xml version="1.0" encoding="UTF-8" standalone="no"?>
<svg
   xmlns:dc="http://purl.org/dc/elements/1.1/"
   xmlns:cc="http://creativecommons.org/ns#"
   xmlns:rdf="http://www.w3.org/1999/02/22-rdf-syntax-ns#"
   xmlns:svg="http://www.w3.org/2000/svg"
   xmlns="http://www.w3.org/2000/svg"
   xmlns:sodipodi="http://sodipodi.sourceforge.net/DTD/sodipodi-0.dtd"
   xmlns:inkscape="http://www.inkscape.org/namespaces/inkscape"
   width="10.066403mm"
   height="6.0581818mm"
   viewBox="0 0 10.066403 6.0581818"
   version="1.1"
   id="svg11455"
   inkscape:version="1.0.2-2 (e86c870879, 2021-01-15)"
   sodipodi:docname="intercept.svg">
  <defs
     id="defs11449" />
  <sodipodi:namedview
     id="base"
     pagecolor="#ffffff"
     bordercolor="#666666"
     borderopacity="1.0"
     inkscape:pageopacity="0.0"
     inkscape:pageshadow="2"
     inkscape:zoom="0.35"
     inkscape:cx="59.023126"
     inkscape:cy="-85.695165"
     inkscape:document-units="mm"
     inkscape:current-layer="layer1"
     inkscape:document-rotation="0"
     showgrid="false"
     inkscape:window-width="1481"
     inkscape:window-height="1020"
     inkscape:window-x="38"
     inkscape:window-y="60"
     inkscape:window-maximized="0" />
  <metadata
     id="metadata11452">
    <rdf:RDF>
      <cc:Work
         rdf:about="">
        <dc:format>image/svg+xml</dc:format>
        <dc:type
           rdf:resource="http://purl.org/dc/dcmitype/StillImage" />
        <dc:title></dc:title>
      </cc:Work>
    </rdf:RDF>
  </metadata>
  <g
     inkscape:label="Ebene 1"
     inkscape:groupmode="layer"
     id="layer1"
     transform="translate(-90.216798,-170.84018)">
    <path
       style="fill:none;stroke:#4c4a4c;stroke-width:0.345722;stroke-linecap:round;stroke-linejoin:round;stroke-miterlimit:10;stroke-opacity:1"
       d="m 95.026757,176.57208 v 0.0303"
       id="path2326" />
    <path
       style="fill:none;stroke:#4c4a4c;stroke-width:0.345722;stroke-linecap:round;stroke-linejoin:round;stroke-miterlimit:10;stroke-opacity:1"
       d="m 95.470484,176.6024 v -0.0303"
       id="path2328" />
    <path
       style="fill:none;stroke:#4c4a4c;stroke-width:0.345722;stroke-linecap:round;stroke-linejoin:round;stroke-miterlimit:10;stroke-opacity:1"
       d="m 95.026757,176.6024 v 0.007 l 0.0028,0.01 0.0041,0.0165 0.0055,0.0207 0.01379,0.0193 0.01655,0.0207 0.0193,0.0165 0.02342,0.0124 h 0.272852 l 0.04272,-0.0262 0.0303,-0.04 0.0096,-0.0234 0.0028,-0.0165 v -0.0165"
       id="path2330" />
    <path
       style="fill:none;stroke:#4c4a4c;stroke-width:0.345722;stroke-linecap:round;stroke-linejoin:round;stroke-miterlimit:10;stroke-opacity:1"
       d="m 96.00103,173.95518 -0.0028,-0.003 -0.0069,-0.01 -0.0097,-0.0165 -0.01379,-0.0165 -0.03305,-0.04 -0.03996,-0.0441"
       id="path2332" />
    <path
       style="fill:none;stroke:#4c4a4c;stroke-width:0.345722;stroke-linecap:round;stroke-linejoin:round;stroke-miterlimit:10;stroke-opacity:1"
       d="m 95.711643,173.67544 c -0.139181,-0.0841 -0.299036,-0.12816 -0.461645,-0.12816"
       id="path2334" />
    <path
       style="fill:none;stroke:#4c4a4c;stroke-width:0.345722;stroke-linecap:round;stroke-linejoin:round;stroke-miterlimit:10;stroke-opacity:1"
       d="m 95.249998,173.54728 c -0.162606,0 -0.321081,0.0441 -0.461642,0.12816"
       id="path2336" />
    <path
       style="fill:none;stroke:#4c4a4c;stroke-width:0.345722;stroke-linecap:round;stroke-linejoin:round;stroke-miterlimit:10;stroke-opacity:1"
       d="m 94.602323,173.82703 -0.04134,0.0427 -0.03171,0.04 -0.01379,0.0166 -0.0096,0.0165 -0.0069,0.01 -0.0041,0.003"
       id="path2338" />
    <path
       style="fill:none;stroke:#4c4a4c;stroke-width:0.345722;stroke-linecap:round;stroke-linejoin:round;stroke-miterlimit:10;stroke-opacity:1"
       d="m 90.946384,173.34196 -0.0028,0.0303 0.0028,0.0289 0.0097,0.0303 0.01379,0.0234 0.02342,0.0234 0.02343,0.0165 0.02893,0.01 0.02618,0.004"
       id="path2340" />
    <path
       style="fill:none;stroke:#4c4a4c;stroke-width:0.345722;stroke-linecap:round;stroke-linejoin:round;stroke-miterlimit:10;stroke-opacity:1"
       d="m 91.071786,173.5087 v 0"
       id="path2342" />
    <path
       style="fill:none;stroke:#4c4a4c;stroke-width:0.345722;stroke-linecap:round;stroke-linejoin:round;stroke-miterlimit:10;stroke-opacity:1"
       d="m 92.028146,171.3879 0.02618,-0.0262"
       id="path2344" />
    <path
       style="fill:none;stroke:#4c4a4c;stroke-width:0.345722;stroke-linecap:round;stroke-linejoin:round;stroke-miterlimit:10;stroke-opacity:1"
       d="m 92.029525,171.38652 c -0.530546,0.55948 -0.906752,1.24713 -1.091406,1.9954"
       id="path2346" />
    <path
       style="fill:none;stroke:#4c4a4c;stroke-width:0.345722;stroke-linecap:round;stroke-linejoin:round;stroke-miterlimit:10;stroke-opacity:1"
       d="m 93.519182,175.92991 c 0.399634,0.46716 0.971518,0.75103 1.586124,0.791"
       id="path2348" />
    <path
       style="fill:none;stroke:#4c4a4c;stroke-width:0.345722;stroke-linecap:round;stroke-linejoin:round;stroke-miterlimit:10;stroke-opacity:1"
       d="m 93.811328,175.67773 c -0.0689,-0.0799 -0.191548,-0.0896 -0.272853,-0.0207 -0.0813,0.0703 -0.09095,0.19292 -0.02067,0.27423"
       id="path2350" />
    <path
       style="fill:none;stroke:#4c4a4c;stroke-width:0.345722;stroke-linecap:round;stroke-linejoin:round;stroke-miterlimit:10;stroke-opacity:1"
       d="m 93.812704,175.67773 c 0.31006,0.35967 0.742763,0.59118 1.215432,0.6463"
       id="path2352" />
    <path
       style="fill:none;stroke:#4c4a4c;stroke-width:0.345722;stroke-linecap:round;stroke-linejoin:round;stroke-miterlimit:10;stroke-opacity:1"
       d="m 95.471863,176.32403 c 0.47129,-0.0551 0.905373,-0.28525 1.215429,-0.6463"
       id="path2354" />
    <path
       style="fill:none;stroke:#4c4a4c;stroke-width:0.345722;stroke-linecap:round;stroke-linejoin:round;stroke-miterlimit:10;stroke-opacity:1"
       d="m 96.979438,175.93129 c 0.0689,-0.0813 0.06063,-0.20395 -0.02067,-0.27423 -0.0813,-0.0689 -0.203948,-0.0606 -0.274228,0.0207"
       id="path2356" />
    <path
       style="fill:none;stroke:#4c4a4c;stroke-width:0.345722;stroke-linecap:round;stroke-linejoin:round;stroke-miterlimit:10;stroke-opacity:1"
       d="m 95.394693,176.7209 c 0.614606,-0.0386 1.185111,-0.32383 1.586121,-0.78961"
       id="path2358" />
    <path
       style="fill:none;stroke:#4c4a4c;stroke-width:0.345722;stroke-linecap:round;stroke-linejoin:round;stroke-miterlimit:10;stroke-opacity:1"
       d="m 95.471863,175.35251 c 0.282498,-0.0689 0.518143,-0.26596 0.635276,-0.53192 0.117132,-0.26596 0.104732,-0.57188 -0.03447,-0.8282"
       id="path2360" />
    <path
       style="fill:none;stroke:#4c4a4c;stroke-width:0.345722;stroke-linecap:round;stroke-linejoin:round;stroke-miterlimit:10;stroke-opacity:1"
       d="M 100.10758,173.99515 H 96.07131"
       id="path2362" />
    <path
       style="fill:none;stroke:#4c4a4c;stroke-width:0.345722;stroke-linecap:round;stroke-linejoin:round;stroke-miterlimit:10;stroke-opacity:1"
       d="m 98.761241,171.05304 c -0.0248,-0.0248 -0.05788,-0.0386 -0.09371,-0.04 -0.03447,0 -0.0689,0.0138 -0.0937,0.0386"
       id="path2364" />
    <path
       style="fill:none;stroke:#4c4a4c;stroke-width:0.345722;stroke-linecap:round;stroke-linejoin:round;stroke-miterlimit:10;stroke-opacity:1"
       d="m 100.11034,173.99377 c -0.10198,-1.10519 -0.577398,-2.14423 -1.349099,-2.94211"
       id="path2366" />
    <path
       style="fill:none;stroke:#4c4a4c;stroke-width:0.345722;stroke-linecap:round;stroke-linejoin:round;stroke-miterlimit:10;stroke-opacity:1"
       d="m 98.411218,171.21151 c -0.04961,0.051 -0.05237,0.13229 -0.0014,0.18328"
       id="path2368" />
    <path
       style="fill:none;stroke:#4c4a4c;stroke-width:0.345722;stroke-linecap:round;stroke-linejoin:round;stroke-miterlimit:10;stroke-opacity:1"
       d="m 98.412598,171.21289 0.15985,-0.16261"
       id="path2370" />
    <path
       style="fill:none;stroke:#4c4a4c;stroke-width:0.345722;stroke-linecap:round;stroke-linejoin:round;stroke-miterlimit:10;stroke-opacity:1"
       d="m 99.374467,173.5087 0.0303,-0.004 0.02618,-0.01 0.02618,-0.0165 0.02067,-0.0234 0.01655,-0.0234 0.0096,-0.0303 v -0.0289 l -0.0028,-0.0303"
       id="path2372" />
    <path
       style="fill:none;stroke:#4c4a4c;stroke-width:0.345722;stroke-linecap:round;stroke-linejoin:round;stroke-miterlimit:10;stroke-opacity:1"
       d="m 99.504004,173.34196 c -0.190172,-0.73312 -0.564998,-1.40422 -1.091406,-1.94993"
       id="path2374" />
    <path
       style="fill:none;stroke:#4c4a4c;stroke-width:0.345722;stroke-linecap:round;stroke-linejoin:round;stroke-miterlimit:10;stroke-opacity:1"
       d="m 91.071786,173.5087 h 8.302681"
       id="path2376" />
    <path
       style="fill:none;stroke:#4c4a4c;stroke-width:0.345722;stroke-linecap:round;stroke-linejoin:round;stroke-miterlimit:10;stroke-opacity:1"
       d="m 92.054329,171.36172 c 0.04961,-0.051 0.04823,-0.13367 -0.0014,-0.18328"
       id="path2378" />
    <path
       style="fill:none;stroke:#4c4a4c;stroke-width:0.345722;stroke-linecap:round;stroke-linejoin:round;stroke-miterlimit:10;stroke-opacity:1"
       d="m 91.926172,171.05166 c -0.0248,-0.0248 -0.05926,-0.0386 -0.09371,-0.0386 -0.03583,0.001 -0.0689,0.0152 -0.0937,0.04"
       id="path2380" />
    <path
       style="fill:none;stroke:#4c4a4c;stroke-width:0.345722;stroke-linecap:round;stroke-linejoin:round;stroke-miterlimit:10;stroke-opacity:1"
       d="m 91.924792,171.05028 0.125402,0.1254"
       id="path2382" />
    <path
       style="fill:none;stroke:#4c4a4c;stroke-width:0.345722;stroke-linecap:round;stroke-linejoin:round;stroke-miterlimit:10;stroke-opacity:1"
       d="m 91.738758,171.05028 c -0.770325,0.79926 -1.247125,1.83693 -1.349099,2.94211"
       id="path2384" />
    <path
       style="fill:none;stroke:#4c4a4c;stroke-width:0.345722;stroke-linecap:round;stroke-linejoin:round;stroke-miterlimit:10;stroke-opacity:1"
       d="m 94.428689,173.99515 h -4.03903"
       id="path2386" />
    <path
       style="fill:none;stroke:#4c4a4c;stroke-width:0.345722;stroke-linecap:round;stroke-linejoin:round;stroke-miterlimit:10;stroke-opacity:1"
       d="m 94.42731,173.99239 c -0.139182,0.25494 -0.151585,0.56086 -0.03443,0.8282 0.117133,0.26596 0.351399,0.46302 0.635276,0.53192"
       id="path2388" />
    <path
       style="fill:none;stroke:#4c4a4c;stroke-width:0.345722;stroke-linecap:round;stroke-linejoin:round;stroke-miterlimit:10;stroke-opacity:1"
       d="m 95.453949,176.65889 0.0041,-0.007 0.0096,-0.0262 0.0028,-0.0303"
       id="path2390" />
    <path
       style="fill:none;stroke:#4c4a4c;stroke-width:0.345722;stroke-linecap:round;stroke-linejoin:round;stroke-miterlimit:10;stroke-opacity:1"
       d="m 95.043295,176.65889 -0.0041,-0.007 -0.0096,-0.0262 -0.0028,-0.0303"
       id="path2392" />
    <path
       style="fill:none;stroke:#4c4a4c;stroke-width:0.345722;stroke-linecap:round;stroke-linejoin:round;stroke-miterlimit:10;stroke-opacity:1"
       d="m 96.07131,173.99515 v 0"
       id="path2394" />
    <path
       style="fill:none;stroke:#4c4a4c;stroke-width:0.345722;stroke-linecap:round;stroke-linejoin:round;stroke-miterlimit:10;stroke-opacity:1"
       d="m 100.10758,173.99515 v 0"
       id="path2396" />
    <path
       style="fill:none;stroke:#4c4a4c;stroke-width:0.345722;stroke-linecap:round;stroke-linejoin:round;stroke-miterlimit:10;stroke-opacity:1"
       d="m 90.389659,173.99515 v 0"
       id="path2398" />
    <path
       style="fill:none;stroke:#4c4a4c;stroke-width:0.345722;stroke-linecap:round;stroke-linejoin:round;stroke-miterlimit:10;stroke-opacity:1"
       d="m 94.428689,173.99515 v 0"
       id="path2400" />
    <path
       style="fill:none;stroke:#4c4a4c;stroke-width:0.345722;stroke-linecap:round;stroke-linejoin:round;stroke-miterlimit:10;stroke-opacity:1"
       d="m 95.470484,176.57208 v -1.2237"
       id="path2402" />
    <path
       style="fill:none;stroke:#4c4a4c;stroke-width:0.345722;stroke-linecap:round;stroke-linejoin:round;stroke-miterlimit:10;stroke-opacity:1"
       d="m 95.026757,175.34838 v 1.2237"
       id="path2404" />
    <path
       style="fill:none;stroke:#4c4a4c;stroke-width:0.345722;stroke-linecap:round;stroke-linejoin:round;stroke-miterlimit:10;stroke-opacity:1"
       d="m 96.00103,173.95518 0.02067,0.011 0.01654,0.01 0.01517,0.01 0.01792,0.01"
       id="path2406" />
    <path
       style="fill:none;stroke:#4c4a4c;stroke-width:0.345722;stroke-linecap:round;stroke-linejoin:round;stroke-miterlimit:10;stroke-opacity:1"
       d="m 95.896297,173.82427 c -0.05374,-0.0579 -0.117132,-0.10749 -0.184654,-0.14883"
       id="path2408" />
    <path
       style="fill:none;stroke:#4c4a4c;stroke-width:0.345722;stroke-linecap:round;stroke-linejoin:round;stroke-miterlimit:10;stroke-opacity:1"
       d="m 94.788356,173.67544 c -0.06752,0.0413 -0.129536,0.0909 -0.184658,0.14883"
       id="path2410" />
    <path
       style="fill:none;stroke:#4c4a4c;stroke-width:0.345722;stroke-linecap:round;stroke-linejoin:round;stroke-miterlimit:10;stroke-opacity:1"
       d="m 94.428689,173.99515 0.01792,-0.01 0.01517,-0.01 0.01654,-0.01 0.01655,-0.011"
       id="path2412" />
    <path
       style="fill:none;stroke:#4c4a4c;stroke-width:0.345722;stroke-linecap:round;stroke-linejoin:round;stroke-miterlimit:10;stroke-opacity:1"
       d="m 94.727721,174.44163 c 0,0.28801 0.234269,0.52228 0.522277,0.52228 0.288011,0 0.522277,-0.23427 0.522277,-0.52228 0,-0.28801 -0.234266,-0.52227 -0.522277,-0.52227 -0.288008,0 -0.522277,0.23426 -0.522277,0.52227 z m 0,0"
       id="path2414" />
  </g>
</svg>
