<?xml version="1.0" encoding="UTF-8" standalone="no"?>
<svg
   xmlns:dc="http://purl.org/dc/elements/1.1/"
   xmlns:cc="http://creativecommons.org/ns#"
   xmlns:rdf="http://www.w3.org/1999/02/22-rdf-syntax-ns#"
   xmlns:svg="http://www.w3.org/2000/svg"
   xmlns="http://www.w3.org/2000/svg"
   xmlns:sodipodi="http://sodipodi.sourceforge.net/DTD/sodipodi-0.dtd"
   xmlns:inkscape="http://www.inkscape.org/namespaces/inkscape"
   width="10.0977mm"
   height="9.0605383mm"
   viewBox="0 0 10.0977 9.0605383"
   version="1.1"
   id="svg11471"
   inkscape:version="1.0.2-2 (e86c870879, 2021-01-15)"
   sodipodi:docname="orange_edge.svg">
  <defs
     id="defs11465" />
  <sodipodi:namedview
     id="base"
     pagecolor="#ffffff"
     bordercolor="#666666"
     borderopacity="1.0"
     inkscape:pageopacity="0.0"
     inkscape:pageshadow="2"
     inkscape:zoom="0.35"
     inkscape:cx="-46.631195"
     inkscape:cy="-117.16249"
     inkscape:document-units="mm"
     inkscape:current-layer="layer1"
     inkscape:document-rotation="0"
     showgrid="false"
     inkscape:window-width="1481"
     inkscape:window-height="1020"
     inkscape:window-x="114"
     inkscape:window-y="60"
     inkscape:window-maximized="0" />
  <metadata
     id="metadata11468">
    <rdf:RDF>
      <cc:Work
         rdf:about="">
        <dc:format>image/svg+xml</dc:format>
        <dc:type
           rdf:resource="http://purl.org/dc/dcmitype/StillImage" />
        <dc:title></dc:title>
      </cc:Work>
    </rdf:RDF>
  </metadata>
  <g
     inkscape:label="Ebene 1"
     inkscape:groupmode="layer"
     id="layer1"
     transform="translate(-118.17117,-179.16591)">
    <path
       style="fill:none;stroke:#f58714;stroke-width:0.345722;stroke-linecap:round;stroke-linejoin:round;stroke-miterlimit:10;stroke-opacity:1"
       d="m 121.69956,183.19452 h -2.76848"
       id="path2270" />
    <path
       style="fill:none;stroke:#f58714;stroke-width:0.345722;stroke-linecap:round;stroke-linejoin:round;stroke-miterlimit:10;stroke-opacity:1"
       d="m 119.8144,185.01629 c 0.25632,1.09967 1.02939,2.0078 2.07257,2.43775"
       id="path2272" />
    <path
       style="fill:none;stroke:#f58714;stroke-width:0.345722;stroke-linecap:round;stroke-linejoin:round;stroke-miterlimit:10;stroke-opacity:1"
       d="m 124.5521,187.45542 c 1.04455,-0.43133 1.81625,-1.33808 2.07532,-2.43776"
       id="path2274" />
    <path
       style="fill:none;stroke:#f58714;stroke-width:0.345722;stroke-linecap:round;stroke-linejoin:round;stroke-miterlimit:10;stroke-opacity:1"
       d="m 127.5135,183.19452 h -2.76848"
       id="path2276" />
    <path
       style="fill:none;stroke:#f58714;stroke-width:0.345722;stroke-linecap:round;stroke-linejoin:round;stroke-miterlimit:10;stroke-opacity:1"
       d="m 125.5057,187.50365 c 0.82406,-0.57465 1.40284,-1.4373 1.62057,-2.41984"
       id="path2278" />
    <path
       style="fill:none;stroke:#f58714;stroke-width:0.345722;stroke-linecap:round;stroke-linejoin:round;stroke-miterlimit:10;stroke-opacity:1"
       d="m 124.29578,182.69292 h 3.06062"
       id="path2280" />
    <path
       style="fill:none;stroke:#f58714;stroke-width:0.345722;stroke-linecap:round;stroke-linejoin:round;stroke-miterlimit:10;stroke-opacity:1"
       d="m 119.0868,182.69292 h 3.062"
       id="path2282" />
    <path
       style="fill:none;stroke:#f58714;stroke-width:0.345722;stroke-linecap:round;stroke-linejoin:round;stroke-miterlimit:10;stroke-opacity:1"
       d="m 119.31417,185.08243 c 0.21636,0.98117 0.79513,1.84657 1.62057,2.42122"
       id="path2284" />
    <path
       style="fill:none;stroke:#f58714;stroke-width:0.345722;stroke-linecap:round;stroke-linejoin:round;stroke-miterlimit:10;stroke-opacity:1"
       d="m 125.42991,187.49538 0.005,0.003"
       id="path2286" />
    <path
       style="fill:none;stroke:#f58714;stroke-width:0.345722;stroke-linecap:round;stroke-linejoin:round;stroke-miterlimit:10;stroke-opacity:1"
       d="m 125.44644,187.49813 h 0.006"
       id="path2288" />
    <path
       style="fill:none;stroke:#f58714;stroke-width:0.345722;stroke-linecap:round;stroke-linejoin:round;stroke-miterlimit:10;stroke-opacity:1"
       d="m 125.42302,187.49538 h 0.007"
       id="path2290" />
    <path
       style="fill:none;stroke:#f58714;stroke-width:0.345722;stroke-linecap:butt;stroke-linejoin:miter;stroke-miterlimit:10;stroke-opacity:1"
       d="m 125.42991,187.49538 0.58428,0.0468 0.58292,0.0565 c 0.0262,0.003 0.0469,0.0193 0.0551,0.0441 0.008,0.0234 0.003,0.0496 -0.0166,0.0675 l 0.001,10e-4 c -0.113,0.10886 -0.23151,0.2136 -0.35415,0.31282 h 0.001 c -0.0262,0.0221 -0.062,0.0317 -0.0951,0.0289 l -0.001,-0.003 -0.73863,-0.0661 -0.74138,-0.0469 -0.74414,-0.0303 -0.74139,-0.01 -0.74414,0.01 -0.74138,0.0303 -0.74139,0.0469 -0.74138,0.0661 0.001,0.003 c -0.0345,0.003 -0.0689,-0.007 -0.0951,-0.0289 h -0.004 c -0.12265,-0.0992 -0.3514,-0.3142 -0.3514,-0.3142 -0.0179,-0.0179 -0.0234,-0.0441 -0.0166,-0.0675 0.01,-0.0248 0.0303,-0.0413 0.0551,-0.0441 h 0.001 l 0.58153,-0.0565 0.58566,-0.0469 h 0.007 l 0.21498,-0.01 0.21635,-0.0138 0.22049,-0.01 0.2191,-0.007 0.66422,-0.0221 0.66835,-0.008 0.66421,0.008 0.66835,0.0221 0.21911,0.007 0.21635,0.01 0.21635,0.0138 0.21635,0.01"
       id="path2292" />
    <path
       style="fill:none;stroke:#f58714;stroke-width:0.345722;stroke-linecap:round;stroke-linejoin:round;stroke-miterlimit:10;stroke-opacity:1"
       d="m 119.30315,185.08243 h 0.004"
       id="path2294" />
    <path
       style="fill:none;stroke:#f58714;stroke-width:0.345722;stroke-linecap:round;stroke-linejoin:round;stroke-miterlimit:10;stroke-opacity:1"
       d="m 122.98251,179.46968 c 0,-0.0717 0.0579,-0.12953 0.12816,-0.13091 h 0.21911 c 0.0717,10e-4 0.12815,0.0593 0.12815,0.13091 v -0.001 2.90077 c 0.32798,0.0413 0.63941,0.1695 0.90124,0.37208 l 0.007,0.004 0.12953,0.11025 0.11576,0.12264 0.10611,0.13367 0.0207,0.0386 0.007,0.0441 -0.011,0.04 -0.0234,0.04 -0.10886,0.12953 -0.0234,0.0234 -0.0234,0.0124 -0.0303,0.011 h -0.0289 l -0.0303,-0.004 -0.0262,-0.01 -0.0234,-0.0193 -0.0207,-0.0207 -0.01,-0.0138 -0.01,-0.0124 v -0.001 c -0.27009,-0.36794 -0.70004,-0.58429 -1.15479,-0.58429 -0.45614,0 -0.8847,0.21635 -1.1548,0.58429 l -0.008,0.0138 -0.01,0.0138 -0.0193,0.0207 -0.0234,0.0193 -0.0289,0.01 -0.0303,0.004 h -0.0303 l -0.0262,-0.011 -0.0275,-0.0124 -0.0234,-0.0234 -0.10886,-0.12954 -0.0234,-0.04 -0.007,-0.04 0.004,-0.0441 0.0193,-0.0386 0.10611,-0.13367 0.11989,-0.12264 0.12953,-0.11024 0.004,-0.004 c 0.26183,-0.20257 0.57188,-0.33073 0.89986,-0.37207 v -2.90077"
       id="path2296" />
    <path
       style="fill:none;stroke:#f58714;stroke-width:0.345722;stroke-linecap:round;stroke-linejoin:round;stroke-miterlimit:10;stroke-opacity:1"
       d="m 127.37432,182.73977 c -0.20946,-0.58705 -0.54157,-1.12448 -0.97428,-1.5751 v 0.001 c -0.0496,-0.051 -0.0496,-0.13366 10e-4,-0.18328 l 0.1502,-0.15296 c 0.0248,-0.0248 0.0593,-0.0386 0.0937,-0.0386 0.0358,0 0.0689,0.0152 0.0937,0.04 v 0.001 c 0.81029,0.8406 1.29123,1.94303 1.35737,3.10747 l -0.011,0.0152 -0.0165,0.0207 -0.0179,0.0193 -0.0358,0.0469 -0.0427,0.0496 -0.83509,0.99356 h -0.0124 l -0.0303,-0.003 -0.113,-0.01 -0.10335,-0.004 -0.0992,-0.006 -0.0965,-0.007 -0.0331,-0.0138 -0.0207,-0.0262 -0.007,-0.0372 0.0138,-0.0331 0.97703,-1.16031 h -0.001 c -0.0193,-0.19982 -0.0537,-0.39687 -0.0992,-0.59118 h 10e-4 l -0.0634,-0.226 -0.0772,-0.22324 z m 0,0"
       id="path2298" />
    <path
       style="fill:none;stroke:#f58714;stroke-width:0.345722;stroke-linecap:round;stroke-linejoin:round;stroke-miterlimit:10;stroke-opacity:1"
       d="m 119.70278,180.83118 c -0.81029,0.84061 -1.29122,1.94304 -1.35875,3.10886 l 0.003,-0.001 0.95636,1.14377 0.0606,-0.003 h 0.005 l 0.10336,-0.007 0.10059,-0.007 0.18604,-0.01 0.0331,-0.0138 0.0221,-0.0262 0.004,-0.0372 -0.0138,-0.033 -0.9729,-1.16031 -0.003,-0.001 c 0.0207,-0.19844 0.0537,-0.3955 0.0992,-0.59118 l 0.003,0.001 0.0593,-0.226 0.0772,-0.22324 v -0.005 c 0.20947,-0.58843 0.54157,-1.12586 0.97428,-1.57648 l 0.003,0.003 c 0.0496,-0.051 0.0496,-0.13367 -0.001,-0.18328 l -0.15296,-0.15296 c -0.0248,-0.0248 -0.0593,-0.0386 -0.0951,-0.0386 -0.0345,0 -0.0689,0.0152 -0.0923,0.04 z m 0,0"
       id="path2300" />
    <path
       style="fill:none;stroke:#f58714;stroke-width:0.345722;stroke-linecap:butt;stroke-linejoin:miter;stroke-miterlimit:10;stroke-opacity:1"
       d="m 123.75835,184.22667 c 0,0.29766 -0.24116,0.53881 -0.53744,0.53881 -0.29766,0 -0.53881,-0.24115 -0.53881,-0.53881 0,-0.29628 0.24115,-0.53743 0.53881,-0.53743 0.29628,0 0.53744,0.24115 0.53744,0.53743 z m 0,0"
       id="path2302" />
  </g>
</svg>
