<svg width="2625" height="1337" xmlns="http://www.w3.org/2000/svg" xmlns:xlink="http://www.w3.org/1999/xlink" overflow="hidden"><defs><clipPath id="clip0"><rect x="541" y="280" width="2625" height="1337"/></clipPath></defs><g clip-path="url(#clip0)" transform="translate(-541 -280)"><path d="M916.667 281.875 1185.36 281.875 1185.36 410.782 916.667 410.782Z" fill="#7F7F7F" fill-rule="evenodd"/><path d="M1185.36 281.875 1454.06 281.875 1454.06 410.782 1185.36 410.782Z" fill="#7F7F7F" fill-rule="evenodd"/><path d="M1454.06 281.875 1722.76 281.875 1722.76 410.782 1454.06 410.782Z" fill="#7F7F7F" fill-rule="evenodd"/><path d="M1722.76 281.875 1991.46 281.875 1991.46 410.782 1722.76 410.782Z" fill="#7F7F7F" fill-rule="evenodd"/><path d="M916.667 410.782 1185.36 410.782 1185.36 539.688 916.667 539.688Z" fill="#CDE9DB" fill-rule="evenodd"/><path d="M1185.36 410.782 1454.06 410.782 1454.06 539.688 1185.36 539.688Z" fill="#CDE9DB" fill-rule="evenodd"/><path d="M1454.06 410.782 1722.76 410.782 1722.76 539.688 1454.06 539.688Z" fill="#7F7F7F" fill-rule="evenodd"/><path d="M1722.76 410.782 1991.46 410.782 1991.46 539.688 1722.76 539.688Z" fill="#7F7F7F" fill-rule="evenodd"/><path d="M1185.36 280.157 1185.36 541.407" stroke="#9E9E9E" stroke-width="3.4375" stroke-linejoin="round" stroke-miterlimit="10" fill="none" fill-rule="evenodd"/><path d="M1454.06 280.157 1454.06 541.407" stroke="#9E9E9E" stroke-width="3.4375" stroke-linejoin="round" stroke-miterlimit="10" fill="none" fill-rule="evenodd"/><path d="M1722.76 280.157 1722.76 541.407" stroke="#9E9E9E" stroke-width="3.4375" stroke-linejoin="round" stroke-miterlimit="10" fill="none" fill-rule="evenodd"/><path d="M914.948 410.782 1993.18 410.782" stroke="#9E9E9E" stroke-width="3.4375" stroke-linejoin="round" stroke-miterlimit="10" fill="none" fill-rule="evenodd"/><path d="M916.667 280.157 916.667 541.407" stroke="#9E9E9E" stroke-width="3.4375" stroke-linejoin="round" stroke-miterlimit="10" fill="none" fill-rule="evenodd"/><path d="M1991.46 280.157 1991.46 541.407" stroke="#9E9E9E" stroke-width="3.4375" stroke-linejoin="round" stroke-miterlimit="10" fill="none" fill-rule="evenodd"/><path d="M914.948 281.875 1993.18 281.875" stroke="#9E9E9E" stroke-width="3.4375" stroke-linejoin="round" stroke-miterlimit="10" fill="none" fill-rule="evenodd"/><path d="M914.948 539.688 1993.18 539.688" stroke="#9E9E9E" stroke-width="3.4375" stroke-linejoin="round" stroke-miterlimit="10" fill="none" fill-rule="evenodd"/><path d="M916.667 640.521 1186.32 640.521 1186.32 765.417 916.667 765.417Z" fill="#7F7F7F" fill-rule="evenodd"/><path d="M1186.32 640.521 1455.97 640.521 1455.97 765.417 1186.32 765.417Z" fill="#7F7F7F" fill-rule="evenodd"/><path d="M1455.97 640.521 1725.63 640.521 1725.63 765.417 1455.97 765.417Z" fill="#7F7F7F" fill-rule="evenodd"/><path d="M1725.63 640.521 1995.28 640.521 1995.28 765.417 1725.63 765.417Z" fill="#7F7F7F" fill-rule="evenodd"/><path d="M1995.28 640.521 2264.93 640.521 2264.93 765.417 1995.28 765.417Z" fill="#7F7F7F" fill-rule="evenodd"/><path d="M2264.93 640.521 2534.58 640.521 2534.58 765.417 2264.93 765.417Z" fill="#7F7F7F" fill-rule="evenodd"/><path d="M916.667 765.417 1186.32 765.417 1186.32 890.312 916.667 890.312Z" fill="#CDE9DB" fill-rule="evenodd"/><path d="M1186.32 765.417 1455.97 765.417 1455.97 890.312 1186.32 890.312Z" fill="#CDE9DB" fill-rule="evenodd"/><path d="M1455.97 765.417 1725.63 765.417 1725.63 890.312 1455.97 890.312Z" fill="#7F7F7F" fill-rule="evenodd"/><path d="M1725.63 765.417 1995.28 765.417 1995.28 890.312 1725.63 890.312Z" fill="#7F7F7F" fill-rule="evenodd"/><path d="M1995.28 765.417 2264.93 765.417 2264.93 890.312 1995.28 890.312Z" fill="#7F7F7F" fill-rule="evenodd"/><path d="M2264.93 765.417 2534.58 765.417 2534.58 890.312 2264.93 890.312Z" fill="#7F7F7F" fill-rule="evenodd"/><path d="M916.667 890.312 1186.32 890.312 1186.32 1015.21 916.667 1015.21Z" fill="#CDE9DB" fill-rule="evenodd"/><path d="M1186.32 890.312 1455.97 890.312 1455.97 1015.21 1186.32 1015.21Z" fill="#CDE9DB" fill-rule="evenodd"/><path d="M1455.97 890.312 1725.63 890.312 1725.63 1015.21 1455.97 1015.21Z" fill="#CDE9DB" fill-rule="evenodd"/><path d="M1725.63 890.312 1995.28 890.312 1995.28 1015.21 1725.63 1015.21Z" fill="#CDE9DB" fill-rule="evenodd"/><path d="M1995.28 890.312 2264.93 890.312 2264.93 1015.21 1995.28 1015.21Z" fill="#7F7F7F" fill-rule="evenodd"/><path d="M2264.93 890.312 2534.58 890.312 2534.58 1015.21 2264.93 1015.21Z" fill="#7F7F7F" fill-rule="evenodd"/><path d="M1186.32 638.802 1186.32 1016.93" stroke="#9E9E9E" stroke-width="3.4375" stroke-linejoin="round" stroke-miterlimit="10" fill="none" fill-rule="evenodd"/><path d="M1455.97 638.802 1455.97 1016.93" stroke="#9E9E9E" stroke-width="3.4375" stroke-linejoin="round" stroke-miterlimit="10" fill="none" fill-rule="evenodd"/><path d="M1725.63 638.802 1725.63 1016.93" stroke="#9E9E9E" stroke-width="3.4375" stroke-linejoin="round" stroke-miterlimit="10" fill="none" fill-rule="evenodd"/><path d="M1995.28 638.802 1995.28 1016.93" stroke="#9E9E9E" stroke-width="3.4375" stroke-linejoin="round" stroke-miterlimit="10" fill="none" fill-rule="evenodd"/><path d="M2264.93 638.802 2264.93 1016.93" stroke="#9E9E9E" stroke-width="3.4375" stroke-linejoin="round" stroke-miterlimit="10" fill="none" fill-rule="evenodd"/><path d="M914.948 765.417 2536.3 765.417" stroke="#9E9E9E" stroke-width="3.4375" stroke-linejoin="round" stroke-miterlimit="10" fill="none" fill-rule="evenodd"/><path d="M914.948 890.312 2536.3 890.312" stroke="#9E9E9E" stroke-width="3.4375" stroke-linejoin="round" stroke-miterlimit="10" fill="none" fill-rule="evenodd"/><path d="M916.667 638.802 916.667 1016.93" stroke="#9E9E9E" stroke-width="3.4375" stroke-linejoin="round" stroke-miterlimit="10" fill="none" fill-rule="evenodd"/><path d="M2534.58 638.802 2534.58 1016.93" stroke="#9E9E9E" stroke-width="3.4375" stroke-linejoin="round" stroke-miterlimit="10" fill="none" fill-rule="evenodd"/><path d="M914.948 640.521 2536.3 640.521" stroke="#9E9E9E" stroke-width="3.4375" stroke-linejoin="round" stroke-miterlimit="10" fill="none" fill-rule="evenodd"/><path d="M914.948 1015.21 2536.3 1015.21" stroke="#9E9E9E" stroke-width="3.4375" stroke-linejoin="round" stroke-miterlimit="10" fill="none" fill-rule="evenodd"/><path d="M916.667 1116.04 1186.94 1116.04 1186.94 1240.36 916.667 1240.36Z" fill="#7F7F7F" fill-rule="evenodd"/><path d="M1186.94 1116.04 1457.21 1116.04 1457.21 1240.36 1186.94 1240.36Z" fill="#7F7F7F" fill-rule="evenodd"/><path d="M1457.21 1116.04 1727.49 1116.04 1727.49 1240.36 1457.21 1240.36Z" fill="#7F7F7F" fill-rule="evenodd"/><path d="M1727.49 1116.04 1997.76 1116.04 1997.76 1240.36 1727.49 1240.36Z" fill="#7F7F7F" fill-rule="evenodd"/><path d="M1997.76 1116.04 2268.03 1116.04 2268.03 1240.36 1997.76 1240.36Z" fill="#7F7F7F" fill-rule="evenodd"/><path d="M2268.03 1116.04 2538.31 1116.04 2538.31 1240.36 2268.03 1240.36Z" fill="#7F7F7F" fill-rule="evenodd"/><path d="M2538.31 1116.04 2808.58 1116.04 2808.58 1240.36 2538.31 1240.36Z" fill="#7F7F7F" fill-rule="evenodd"/><path d="M2808.58 1116.04 3078.85 1116.04 3078.85 1240.36 2808.58 1240.36Z" fill="#7F7F7F" fill-rule="evenodd"/><path d="M916.667 1240.36 1186.94 1240.36 1186.94 1364.69 916.667 1364.69Z" fill="#CDE9DB" fill-rule="evenodd"/><path d="M1186.94 1240.36 1457.21 1240.36 1457.21 1364.69 1186.94 1364.69Z" fill="#CDE9DB" fill-rule="evenodd"/><path d="M1457.21 1240.36 1727.49 1240.36 1727.49 1364.69 1457.21 1364.69Z" fill="#7F7F7F" fill-rule="evenodd"/><path d="M1727.49 1240.36 1997.76 1240.36 1997.76 1364.69 1727.49 1364.69Z" fill="#7F7F7F" fill-rule="evenodd"/><path d="M1997.76 1240.36 2268.03 1240.36 2268.03 1364.69 1997.76 1364.69Z" fill="#7F7F7F" fill-rule="evenodd"/><path d="M2268.03 1240.36 2538.31 1240.36 2538.31 1364.69 2268.03 1364.69Z" fill="#7F7F7F" fill-rule="evenodd"/><path d="M2538.31 1240.36 2808.58 1240.36 2808.58 1364.69 2538.31 1364.69Z" fill="#7F7F7F" fill-rule="evenodd"/><path d="M2808.58 1240.36 3078.85 1240.36 3078.85 1364.69 2808.58 1364.69Z" fill="#7F7F7F" fill-rule="evenodd"/><path d="M916.667 1364.69 1186.94 1364.69 1186.94 1489.01 916.667 1489.01Z" fill="#CDE9DB" fill-rule="evenodd"/><path d="M1186.94 1364.69 1457.21 1364.69 1457.21 1489.01 1186.94 1489.01Z" fill="#CDE9DB" fill-rule="evenodd"/><path d="M1457.21 1364.69 1727.49 1364.69 1727.49 1489.01 1457.21 1489.01Z" fill="#CDE9DB" fill-rule="evenodd"/><path d="M1727.49 1364.69 1997.76 1364.69 1997.76 1489.01 1727.49 1489.01Z" fill="#CDE9DB" fill-rule="evenodd"/><path d="M1997.76 1364.69 2268.03 1364.69 2268.03 1489.01 1997.76 1489.01Z" fill="#7F7F7F" fill-rule="evenodd"/><path d="M2268.03 1364.69 2538.31 1364.69 2538.31 1489.01 2268.03 1489.01Z" fill="#7F7F7F" fill-rule="evenodd"/><path d="M2538.31 1364.69 2808.58 1364.69 2808.58 1489.01 2538.31 1489.01Z" fill="#7F7F7F" fill-rule="evenodd"/><path d="M2808.58 1364.69 3078.85 1364.69 3078.85 1489.01 2808.58 1489.01Z" fill="#7F7F7F" fill-rule="evenodd"/><path d="M916.667 1489.01 1186.94 1489.01 1186.94 1613.33 916.667 1613.33Z" fill="#CDE9DB" fill-rule="evenodd"/><path d="M1186.94 1489.01 1457.21 1489.01 1457.21 1613.33 1186.94 1613.33Z" fill="#CDE9DB" fill-rule="evenodd"/><path d="M1457.21 1489.01 1727.49 1489.01 1727.49 1613.33 1457.21 1613.33Z" fill="#CDE9DB" fill-rule="evenodd"/><path d="M1727.49 1489.01 1997.76 1489.01 1997.76 1613.33 1727.49 1613.33Z" fill="#CDE9DB" fill-rule="evenodd"/><path d="M1997.76 1489.01 2268.03 1489.01 2268.03 1613.33 1997.76 1613.33Z" fill="#CDE9DB" fill-rule="evenodd"/><path d="M2268.03 1489.01 2538.31 1489.01 2538.31 1613.33 2268.03 1613.33Z" fill="#CDE9DB" fill-rule="evenodd"/><path d="M2538.31 1489.01 2808.58 1489.01 2808.58 1613.33 2538.31 1613.33Z" fill="#7F7F7F" fill-rule="evenodd"/><path d="M2808.58 1489.01 3078.85 1489.01 3078.85 1613.33 2808.58 1613.33Z" fill="#7F7F7F" fill-rule="evenodd"/><path d="M1186.94 1114.32 1186.94 1615.05" stroke="#9E9E9E" stroke-width="3.4375" stroke-linejoin="round" stroke-miterlimit="10" fill="none" fill-rule="evenodd"/><path d="M1457.21 1114.32 1457.21 1615.05" stroke="#9E9E9E" stroke-width="3.4375" stroke-linejoin="round" stroke-miterlimit="10" fill="none" fill-rule="evenodd"/><path d="M1727.49 1114.32 1727.49 1615.05" stroke="#9E9E9E" stroke-width="3.4375" stroke-linejoin="round" stroke-miterlimit="10" fill="none" fill-rule="evenodd"/><path d="M1997.76 1114.32 1997.76 1615.05" stroke="#9E9E9E" stroke-width="3.4375" stroke-linejoin="round" stroke-miterlimit="10" fill="none" fill-rule="evenodd"/><path d="M2268.03 1114.32 2268.03 1615.05" stroke="#9E9E9E" stroke-width="3.4375" stroke-linejoin="round" stroke-miterlimit="10" fill="none" fill-rule="evenodd"/><path d="M2538.31 1114.32 2538.31 1615.05" stroke="#9E9E9E" stroke-width="3.4375" stroke-linejoin="round" stroke-miterlimit="10" fill="none" fill-rule="evenodd"/><path d="M2808.58 1114.32 2808.58 1615.05" stroke="#9E9E9E" stroke-width="3.4375" stroke-linejoin="round" stroke-miterlimit="10" fill="none" fill-rule="evenodd"/><path d="M914.948 1240.36 3080.57 1240.36" stroke="#9E9E9E" stroke-width="3.4375" stroke-linejoin="round" stroke-miterlimit="10" fill="none" fill-rule="evenodd"/><path d="M914.948 1364.69 3080.57 1364.69" stroke="#9E9E9E" stroke-width="3.4375" stroke-linejoin="round" stroke-miterlimit="10" fill="none" fill-rule="evenodd"/><path d="M914.948 1489.01 3080.57 1489.01" stroke="#9E9E9E" stroke-width="3.4375" stroke-linejoin="round" stroke-miterlimit="10" fill="none" fill-rule="evenodd"/><path d="M916.667 1114.32 916.667 1615.05" stroke="#9E9E9E" stroke-width="3.4375" stroke-linejoin="round" stroke-miterlimit="10" fill="none" fill-rule="evenodd"/><path d="M3078.85 1114.32 3078.85 1615.05" stroke="#9E9E9E" stroke-width="3.4375" stroke-linejoin="round" stroke-miterlimit="10" fill="none" fill-rule="evenodd"/><path d="M914.948 1116.04 3080.57 1116.04" stroke="#9E9E9E" stroke-width="3.4375" stroke-linejoin="round" stroke-miterlimit="10" fill="none" fill-rule="evenodd"/><path d="M914.948 1613.33 3080.57 1613.33" stroke="#9E9E9E" stroke-width="3.4375" stroke-linejoin="round" stroke-miterlimit="10" fill="none" fill-rule="evenodd"/><text fill="#7F7F7F" font-family="Arial,Arial_MSFontService,sans-serif" font-weight="400" font-size="64" transform="matrix(1 0 0 1 587.583 434)">2 <tspan font-size="64" x="53.2813" y="0">bits</tspan><tspan font-size="64" x="-8.02087" y="954">4</tspan><tspan font-size="64" x="45.2604" y="954">bits</tspan><tspan font-size="64" x="-8.02087" y="417">3</tspan><tspan font-size="64" x="45.2604" y="417">bits</tspan><tspan fill="#CDE9DB" font-weight="700" font-size="64" x="2117.5" y="-39">v</tspan><tspan fill="#CDE9DB" font-weight="700" font-size="64" x="2153.02" y="-39">alid</tspan><tspan font-weight="700" font-size="64" x="2117.5" y="38">invalid</tspan></text></g></svg>